<svg width="192" height="192" viewBox="0 0 192 192" fill="none" xmlns="http://www.w3.org/2000/svg">
<path d="M165.714 93.047C168.648 93.0471 171.027 95.426 171.027 98.3604V104.817C171.027 107.632 168.852 109.973 166.057 110.308C154.062 111.742 124.353 117.099 122.246 135.093C122.087 136.449 122.238 137.823 122.457 139.17C123.207 143.769 127.178 147.147 131.836 147.147H136.642C139.576 147.147 141.955 149.526 141.955 152.46V159.841C141.955 162.775 139.576 165.154 136.642 165.154H122.127C119.193 165.154 116.89 162.728 116.07 159.91C113.801 152.117 106.602 146.423 98.0739 146.422C89.5452 146.422 82.347 152.117 80.0779 159.91C79.2576 162.728 76.9549 165.154 74.0205 165.154H57.5331C54.5987 165.154 52.2201 162.776 52.2201 159.841V152.46C52.2201 149.526 54.5987 147.147 57.5331 147.147H59.2093C65.4947 147.147 70.5906 142.05 70.5908 135.762V135.228C70.5908 132.127 68.6927 129.339 65.8253 128.16C40.3012 117.673 24.9406 109.089 21.2723 98.2662C20.3304 95.4871 22.7941 93.047 25.7285 93.047H165.714Z" fill="white"/>
<path d="M100.323 22.4282C103.258 22.4282 105.636 24.8069 105.636 27.7413V41.0919C105.636 43.2596 106.981 45.1997 109.011 45.961C110.965 46.6938 113.168 46.1878 114.606 44.6753L124.541 34.2268C126.554 32.1098 129.899 32.0147 132.028 34.0141L137.781 39.4144C139.918 41.4211 140.026 44.7798 138.022 46.9197L127.548 58.105C126.275 59.4638 125.983 61.4706 126.816 63.1356C127.637 64.7794 129.385 65.749 131.215 65.5758L148.481 63.9401C151.599 63.6449 154.295 66.0977 154.295 69.2299V75.121C154.295 78.0552 151.916 80.4341 148.982 80.4341H43.4175C40.2434 80.434 37.7771 77.6688 38.1387 74.5154L38.7924 68.8147C39.1212 65.9502 41.6751 63.8706 44.5468 64.1286L60.8205 65.5917C62.6484 65.756 64.3906 64.7838 65.2113 63.1423C66.0458 61.4731 65.7534 59.4611 64.4786 58.0984L54.2033 47.1138C52.2309 45.0054 52.303 41.7075 54.3659 39.6875L59.9985 34.1727C62.117 32.0985 65.5229 32.1598 67.5659 34.3084L77.4231 44.6753C78.8611 46.1878 81.0644 46.6937 83.0185 45.961C85.0482 45.1998 86.3931 43.2597 86.3932 41.0919V27.7413C86.3933 24.807 88.7719 22.4283 91.7062 22.4282H100.323Z" fill="white"/>
</svg>
