<svg width="903" height="509" viewBox="0 0 903 509" fill="none" xmlns="http://www.w3.org/2000/svg">
<path d="M95.1143 377C105.015 377 112.598 379.068 117.862 383.204C122.417 386.687 125.436 391.361 126.921 397.227C127.341 398.888 126.117 400.461 124.413 400.64L110.604 402.087C109.03 402.252 107.622 401.156 107.208 399.628C106.478 396.937 105.424 394.877 104.044 393.45C102.289 391.57 99.7199 390.63 96.3359 390.63C92.6386 390.63 89.7244 391.852 87.5938 394.296C85.4632 396.677 84.3985 400.249 84.3984 405.012V416.762C84.3984 421.65 85.4321 425.316 87.5 427.76C89.568 430.204 92.4822 431.426 96.2422 431.426C99.7514 431.426 102.415 430.423 104.232 428.418C105.654 426.855 106.698 424.7 107.367 421.955C107.749 420.387 109.17 419.239 110.776 419.398L124.62 420.776C126.317 420.945 127.548 422.499 127.155 424.159C125.717 430.229 122.682 435.095 118.05 438.758C112.723 442.956 105.046 445.056 95.0195 445.056C88.5024 445.056 82.9253 443.959 78.2881 441.766C73.6508 439.51 70.11 436.283 67.666 432.084C65.222 427.823 64 422.715 64 416.762V405.012C64 399.121 65.2221 394.108 67.666 389.972C70.11 385.773 73.6508 382.577 78.2881 380.384C82.9881 378.128 88.597 377 95.1143 377Z" fill="white"/>
<path fill-rule="evenodd" clip-rule="evenodd" d="M166.562 377C173.706 377 179.785 378.128 184.798 380.384C189.874 382.577 193.727 385.805 196.359 390.066C199.054 394.265 200.401 399.372 200.401 405.388V416.668C200.401 422.621 199.054 427.729 196.359 431.99C193.727 436.251 189.874 439.51 184.798 441.766C179.785 443.959 173.706 445.056 166.562 445.056C159.418 445.056 153.307 443.959 148.231 441.766C143.218 439.51 139.365 436.251 136.67 431.99C134.038 427.729 132.722 422.621 132.722 416.668V405.388C132.722 399.372 134.038 394.265 136.67 390.066C139.365 385.805 143.218 382.577 148.231 380.384C153.307 378.128 159.418 377 166.562 377ZM166.562 390.63C162.112 390.63 158.76 391.915 156.504 394.484C154.248 396.991 153.12 400.814 153.12 405.952V416.104C153.12 421.18 154.248 425.003 156.504 427.572C158.76 430.141 162.112 431.426 166.562 431.426C171.011 431.426 174.332 430.141 176.525 427.572C178.781 425.003 179.91 421.18 179.91 416.104V405.952C179.91 400.814 178.781 396.991 176.525 394.484C174.332 391.915 171.011 390.63 166.562 390.63Z" fill="white"/>
<path fill-rule="evenodd" clip-rule="evenodd" d="M612.294 377C619.438 377 625.517 378.128 630.53 380.384C635.606 382.577 639.46 385.805 642.092 390.066C644.786 394.265 646.134 399.372 646.134 405.388V416.668C646.134 422.621 644.786 427.729 642.092 431.99C639.46 436.251 635.606 439.51 630.53 441.766C625.517 443.959 619.438 445.056 612.294 445.056C605.15 445.056 599.04 443.959 593.964 441.766C588.951 439.51 585.097 436.251 582.402 431.99C579.77 427.729 578.454 422.621 578.454 416.668V405.388C578.454 399.372 579.77 394.265 582.402 390.066C585.097 385.805 588.951 382.577 593.964 380.384C599.04 378.128 605.15 377 612.294 377ZM612.294 390.63C607.845 390.63 604.492 391.915 602.236 394.484C599.98 396.991 598.853 400.814 598.853 405.952V416.104C598.853 421.18 599.98 425.003 602.236 427.572C604.492 430.141 607.845 431.426 612.294 431.426C616.743 431.426 620.064 430.141 622.258 427.572C624.514 425.003 625.643 421.18 625.643 416.104V405.952C625.643 400.814 624.514 396.991 622.258 394.484C620.064 391.915 616.743 390.63 612.294 390.63Z" fill="white"/>
<path d="M747.897 377C753.663 377 758.676 377.815 762.938 379.444C767.261 381.011 770.677 383.33 773.184 386.4C775.137 388.687 776.511 391.355 777.306 394.402C777.729 396.025 776.517 397.552 774.851 397.74L761.525 399.242C759.944 399.42 758.547 398.31 757.976 396.825C757.349 395.196 756.434 393.882 755.229 392.886C753.475 391.382 750.905 390.63 747.521 390.63C743.448 390.63 740.472 391.821 738.592 394.202C736.775 396.521 735.866 399.904 735.866 404.354V418.172C735.866 422.621 736.775 426.068 738.592 428.512C740.409 430.893 743.354 432.084 747.428 432.084C751.438 432.084 754.384 430.956 756.264 428.7C757.566 427.094 758.417 425.066 758.817 422.617C758.869 422.303 758.96 422.002 759.084 421.719V418.642H750.428C748.771 418.642 747.428 417.298 747.428 415.642V409.892C747.428 408.235 748.771 406.892 750.428 406.892H775.824C777.481 406.892 778.824 408.235 778.824 409.892V440.834C778.824 442.491 777.481 443.834 775.824 443.834H769.863C768.681 443.834 767.609 443.139 767.126 442.06L765.209 437.778C763.474 439.524 761.371 440.979 758.896 442.142C754.76 444.084 749.621 445.056 743.479 445.056C737.652 445.056 732.638 444.053 728.439 442.048C724.241 440.043 721.014 437.035 718.758 433.024C716.565 428.951 715.468 423.969 715.468 418.078V403.696C715.468 398.119 716.752 393.356 719.321 389.408C721.891 385.398 725.589 382.327 730.414 380.196C735.302 378.066 741.13 377 747.897 377Z" fill="white"/>
<path d="M228.521 378.128C229.538 378.128 230.486 378.644 231.039 379.498L254.086 415.108C254.108 415.143 254.147 415.164 254.188 415.164C254.256 415.164 254.311 415.109 254.311 415.042V381.128C254.311 379.471 255.654 378.128 257.311 378.128H271.803C273.459 378.128 274.803 379.471 274.803 381.128V440.928C274.803 442.584 273.459 443.928 271.803 443.928H253.313C252.294 443.928 251.344 443.41 250.792 442.554L227.856 406.976C227.823 406.924 227.765 406.892 227.703 406.892C227.602 406.892 227.521 406.974 227.521 407.074V440.928C227.521 442.585 226.177 443.928 224.521 443.928H210.028C208.371 443.928 207.028 442.585 207.028 440.928V381.128C207.028 379.471 208.371 378.128 210.028 378.128H228.521Z" fill="white"/>
<path d="M332.008 378.128C333.664 378.128 335.008 379.471 335.008 381.128V388.852C335.008 390.508 333.664 391.851 332.008 391.852H317.806V440.928C317.806 442.584 316.462 443.928 314.806 443.928H300.313C298.657 443.928 297.313 442.585 297.313 440.928V391.852H283.111C281.454 391.852 280.111 390.508 280.111 388.852V381.128C280.111 379.471 281.454 378.128 283.111 378.128H332.008Z" fill="white"/>
<path d="M388.91 378.128C390.567 378.128 391.91 379.471 391.91 381.128V388.852C391.91 390.508 390.567 391.851 388.91 391.852H360.702V404.26H386.936C388.592 404.26 389.935 405.603 389.936 407.26V414.984C389.935 416.641 388.592 417.984 386.936 417.984H360.702V430.204H389.38C391.037 430.204 392.38 431.547 392.38 433.204V440.928C392.38 442.585 391.037 443.928 389.38 443.928H343.21C341.553 443.928 340.21 442.585 340.21 440.928V381.128C340.21 379.471 341.553 378.128 343.21 378.128H388.91Z" fill="white"/>
<path d="M417.147 378.128C418.125 378.128 419.042 378.605 419.604 379.405L431.104 395.802L442.068 379.457C442.625 378.626 443.56 378.128 444.561 378.128H458.986C461.38 378.128 462.81 380.794 461.485 382.788L442.27 411.718L461.55 439.205C462.944 441.193 461.522 443.927 459.094 443.928H443.017C442.039 443.928 441.122 443.451 440.561 442.65L428.626 425.636L417.249 442.599C416.692 443.429 415.758 443.928 414.758 443.928H400.332C397.939 443.928 396.509 441.262 397.833 439.269L417.46 409.718L398.614 382.851C397.22 380.863 398.642 378.128 401.07 378.128H417.147Z" fill="white"/>
<path d="M518.917 378.128C520.574 378.128 521.917 379.471 521.917 381.128V388.852C521.917 390.508 520.574 391.851 518.917 391.852H504.715V440.928C504.715 442.584 503.372 443.928 501.715 443.928H487.223C485.566 443.928 484.223 442.585 484.223 440.928V391.852H470.021C468.364 391.852 467.021 390.508 467.021 388.852V381.128C467.021 379.471 468.364 378.128 470.021 378.128H518.917Z" fill="white"/>
<path d="M571.118 378.128C572.775 378.128 574.118 379.471 574.118 381.128V388.852C574.118 390.508 572.775 391.852 571.118 391.852H547.61V405.67H569.238C570.895 405.67 572.238 407.013 572.238 408.67V416.3C572.238 417.957 570.895 419.3 569.238 419.3H547.61V440.928C547.61 442.585 546.267 443.928 544.61 443.928H530.118C528.461 443.928 527.118 442.585 527.118 440.928V381.128C527.118 379.471 528.461 378.128 530.118 378.128H571.118Z" fill="white"/>
<path fill-rule="evenodd" clip-rule="evenodd" d="M687.135 378.128C694.905 378.128 700.827 379.851 704.9 383.298C708.974 386.745 711.011 391.758 711.011 398.338V403.696C711.011 410.088 708.974 414.976 704.9 418.36C703.873 419.214 702.728 419.959 701.466 420.597C701.657 420.813 701.819 421.058 701.943 421.329L710.373 439.676C711.286 441.663 709.833 443.928 707.646 443.928H693.329C692.136 443.928 691.056 443.221 690.579 442.128L682.575 423.781C682.525 423.667 682.483 423.551 682.448 423.436H675.001C674.105 423.436 673.303 423.04 672.753 422.417V440.928C672.753 442.585 671.41 443.928 669.753 443.928H655.261C653.604 443.928 652.261 442.585 652.261 440.928V381.128C652.261 379.471 653.604 378.128 655.261 378.128H687.135ZM672.753 410.823C673.303 410.201 674.105 409.806 675.001 409.806H681.119C684.503 409.806 687.009 409.117 688.639 407.738C690.331 406.297 691.177 404.166 691.177 401.346V400.406C691.177 397.461 690.331 395.299 688.639 393.92C687.009 392.541 684.503 391.852 681.119 391.852H672.753V410.823Z" fill="white"/>
<path d="M835.486 378.128C837.143 378.128 838.486 379.471 838.486 381.128V388.852C838.486 390.508 837.143 391.851 835.486 391.852H807.278V404.26H833.512C835.169 404.26 836.512 405.603 836.512 407.26V414.984C836.511 416.641 835.168 417.984 833.512 417.984H807.278V430.204H835.956C837.613 430.204 838.956 431.547 838.956 433.204V440.928C838.956 442.585 837.613 443.928 835.956 443.928H789.786C788.129 443.928 786.786 442.585 786.786 440.928V381.128C786.786 379.471 788.129 378.128 789.786 378.128H835.486Z" fill="white"/>
<path d="M570.859 185.498C575.908 185.498 580.001 189.591 580.001 194.64V205.748C580.001 210.591 576.259 214.619 571.45 215.194C550.812 217.663 499.699 226.88 496.073 257.837C495.8 260.17 496.06 262.534 496.438 264.853C497.727 272.765 504.559 278.576 512.572 278.576H520.841C525.889 278.576 529.981 282.669 529.981 287.718V300.416C529.981 305.464 525.889 309.557 520.841 309.557H495.869C490.821 309.557 486.859 305.382 485.447 300.535C481.543 287.128 469.159 277.329 454.486 277.329C439.813 277.329 427.428 287.128 423.524 300.535C422.113 305.382 418.151 309.557 413.103 309.557H384.736C379.688 309.556 375.596 305.464 375.596 300.416V287.718C375.596 282.669 379.688 278.576 384.736 278.576H387.621C398.435 278.576 407.202 269.806 407.202 258.988V258.069C407.202 252.734 403.936 247.937 399.003 245.91C355.089 227.868 328.662 213.097 322.351 194.478C320.73 189.696 324.969 185.498 330.018 185.498H570.859ZM458.356 64C463.405 64 467.498 68.0931 467.498 73.1416V96.1104C467.498 99.8398 469.812 103.178 473.304 104.487C476.666 105.748 480.456 104.878 482.931 102.276L500.022 84.2988C503.486 80.6569 509.24 80.493 512.904 83.9326L522.802 93.2246C526.478 96.677 526.664 102.455 523.217 106.137L505.195 125.381C503.006 127.719 502.504 131.171 503.936 134.036C505.35 136.864 508.357 138.532 511.505 138.234L541.211 135.42C546.576 134.912 551.214 139.133 551.214 144.521V154.656C551.214 159.705 547.121 163.798 542.072 163.798H360.451C354.99 163.798 350.747 159.04 351.369 153.614L352.494 143.808C353.06 138.879 357.454 135.301 362.395 135.745L390.393 138.262C393.537 138.544 396.535 136.872 397.947 134.048C399.383 131.176 398.88 127.715 396.687 125.37L379.008 106.471C375.615 102.843 375.739 97.1695 379.288 93.6943L388.979 84.2061C392.623 80.6376 398.483 80.743 401.998 84.4395L418.957 102.276C421.431 104.878 425.222 105.748 428.584 104.487C432.076 103.178 434.389 99.8399 434.39 96.1104V73.1416C434.39 68.0931 438.483 64.0001 443.531 64H458.356Z" fill="white"/>
</svg>
