<svg width="1054" height="212" viewBox="0 0 1054 212" fill="none" xmlns="http://www.w3.org/2000/svg">
<path d="M279.346 80.0723C289.247 80.0723 296.83 82.1404 302.094 86.2764C306.648 89.7592 309.667 94.4336 311.152 100.299C311.573 101.96 310.349 103.533 308.645 103.712L294.836 105.159C293.261 105.324 291.854 104.228 291.439 102.7C290.71 100.009 289.655 97.9497 288.275 96.5225C286.521 94.6425 283.951 93.7021 280.567 93.7021C276.87 93.7022 273.956 94.9242 271.825 97.3682C269.695 99.7495 268.63 103.322 268.63 108.084V119.834C268.63 124.722 269.664 128.388 271.731 130.832C273.799 133.276 276.714 134.498 280.474 134.498C283.983 134.498 286.647 133.496 288.464 131.49C289.885 129.927 290.93 127.772 291.599 125.027C291.981 123.459 293.401 122.311 295.008 122.471L308.852 123.849C310.549 124.018 311.78 125.572 311.387 127.231C309.949 133.301 306.913 138.167 302.281 141.83C296.955 146.029 289.278 148.128 279.251 148.128C272.734 148.128 267.157 147.031 262.52 144.838C257.882 142.582 254.341 139.355 251.897 135.156C249.453 130.895 248.231 125.787 248.231 119.834V108.084C248.231 102.193 249.453 97.1799 251.897 93.0439C254.341 88.8454 257.882 85.6493 262.52 83.4561C267.22 81.2001 272.828 80.0723 279.346 80.0723Z" fill="black"/>
<path fill-rule="evenodd" clip-rule="evenodd" d="M350.793 80.0723C357.937 80.0723 364.016 81.2001 369.029 83.4561C374.105 85.6494 377.959 88.8774 380.591 93.1387C383.285 97.3372 384.633 102.444 384.633 108.46V119.74C384.633 125.694 383.285 130.801 380.591 135.062C377.959 139.324 374.105 142.582 369.029 144.838C364.016 147.031 357.937 148.128 350.793 148.128C343.649 148.128 337.539 147.031 332.463 144.838C327.45 142.582 323.596 139.324 320.901 135.062C318.269 130.801 316.953 125.694 316.953 119.74V108.46C316.953 102.444 318.269 97.3372 320.901 93.1387C323.596 88.8774 327.45 85.6494 332.463 83.4561C337.539 81.2001 343.649 80.0723 350.793 80.0723ZM350.793 93.7021C346.344 93.7022 342.991 94.9873 340.735 97.5566C338.479 100.063 337.352 103.886 337.352 109.024V119.176C337.352 124.252 338.479 128.075 340.735 130.645C342.991 133.214 346.344 134.498 350.793 134.498C355.242 134.498 358.563 133.214 360.757 130.645C363.013 128.075 364.142 124.252 364.142 119.176V109.024C364.142 103.886 363.013 100.063 360.757 97.5566C358.563 94.9873 355.242 93.7021 350.793 93.7021Z" fill="black"/>
<path fill-rule="evenodd" clip-rule="evenodd" d="M796.525 80.0723C803.669 80.0723 809.748 81.2001 814.762 83.4561C819.838 85.6494 823.691 88.8774 826.323 93.1387C829.018 97.3372 830.365 102.444 830.365 108.46V119.74C830.365 125.694 829.018 130.801 826.323 135.062C823.691 139.324 819.837 142.582 814.762 144.838C809.748 147.031 803.669 148.128 796.525 148.128C789.381 148.128 783.271 147.031 778.195 144.838C773.182 142.582 769.328 139.324 766.634 135.062C764.002 130.801 762.686 125.694 762.686 119.74V108.46C762.686 102.444 764.002 97.3372 766.634 93.1387C769.328 88.8774 773.182 85.6494 778.195 83.4561C783.271 81.2001 789.381 80.0723 796.525 80.0723ZM796.525 93.7021C792.076 93.7022 788.724 94.9873 786.468 97.5566C784.212 100.063 783.084 103.886 783.084 109.024V119.176C783.084 124.252 784.212 128.075 786.468 130.645C788.724 133.214 792.076 134.498 796.525 134.498C800.975 134.498 804.296 133.214 806.489 130.645C808.745 128.075 809.874 124.252 809.874 119.176V109.024C809.874 103.886 808.745 100.063 806.489 97.5566C804.296 94.9873 800.975 93.7021 796.525 93.7021Z" fill="black"/>
<path d="M932.129 80.0723C937.894 80.0723 942.908 80.8873 947.169 82.5166C951.493 84.0833 954.908 86.402 957.415 89.4727C959.368 91.7597 960.743 94.4269 961.537 97.4746C961.96 99.0975 960.749 100.624 959.082 100.812L945.757 102.314C944.176 102.493 942.778 101.383 942.207 99.8975C941.581 98.268 940.665 96.9546 939.461 95.958C937.706 94.4542 935.137 93.7021 931.753 93.7021C927.68 93.7022 924.703 94.8931 922.823 97.2744C921.006 99.593 920.098 102.977 920.098 107.426V121.244C920.098 125.693 921.006 129.14 922.823 131.584C924.641 133.965 927.586 135.156 931.659 135.156C935.67 135.156 938.615 134.028 940.495 131.772C941.798 130.166 942.649 128.138 943.049 125.689C943.1 125.376 943.191 125.074 943.315 124.791V121.714H934.659C933.002 121.714 931.659 120.371 931.659 118.714V112.964C931.659 111.307 933.002 109.964 934.659 109.964H960.056C961.712 109.964 963.055 111.307 963.056 112.964V143.906C963.056 145.563 961.712 146.906 960.056 146.906H954.095C952.912 146.906 951.841 146.211 951.357 145.132L949.44 140.851C947.706 142.597 945.602 144.051 943.127 145.214C938.991 147.157 933.852 148.128 927.711 148.128C921.883 148.128 916.87 147.125 912.671 145.12C908.472 143.115 905.245 140.107 902.989 136.097C900.796 132.023 899.699 127.041 899.699 121.15V106.769C899.699 101.191 900.984 96.4284 903.553 92.4805C906.122 88.4698 909.82 85.3992 914.646 83.2686C919.533 81.138 925.361 80.0723 932.129 80.0723Z" fill="black"/>
<path d="M412.752 81.2002C413.769 81.2002 414.718 81.7161 415.271 82.5703L438.317 118.181C438.34 118.215 438.379 118.236 438.42 118.236C438.487 118.236 438.542 118.182 438.542 118.114V84.2002C438.542 82.5433 439.885 81.2002 441.542 81.2002H456.034C457.691 81.2004 459.034 82.5435 459.034 84.2002V144C459.034 145.657 457.691 147 456.034 147H437.545C436.526 147 435.576 146.483 435.023 145.626L412.088 110.048C412.054 109.996 411.996 109.964 411.935 109.964C411.834 109.964 411.752 110.046 411.752 110.146V144C411.752 145.657 410.409 147 408.752 147H394.26C392.603 147 391.26 145.657 391.26 144V84.2002C391.26 82.5433 392.603 81.2002 394.26 81.2002H412.752Z" fill="black"/>
<path d="M516.239 81.2002C517.896 81.2005 519.239 82.5435 519.239 84.2002V91.9238C519.239 93.5805 517.896 94.9236 516.239 94.9238H502.037V144C502.037 145.657 500.694 147 499.037 147H484.545C482.888 147 481.545 145.657 481.545 144V94.9238H467.343C465.686 94.9238 464.343 93.5807 464.343 91.9238V84.2002C464.343 82.5433 465.686 81.2002 467.343 81.2002H516.239Z" fill="black"/>
<path d="M573.142 81.2002C574.798 81.2003 576.142 82.5434 576.142 84.2002V91.9238C576.142 93.5806 574.798 94.9237 573.142 94.9238H544.934V107.332H571.167C572.824 107.332 574.167 108.675 574.167 110.332V118.057C574.167 119.713 572.824 121.057 571.167 121.057H544.934V133.276H573.611C575.268 133.276 576.611 134.62 576.611 136.276V144C576.611 145.657 575.268 147 573.611 147H527.441C525.785 147 524.441 145.657 524.441 144V84.2002C524.441 82.5433 525.785 81.2002 527.441 81.2002H573.142Z" fill="black"/>
<path d="M601.379 81.2002C602.357 81.2002 603.273 81.677 603.835 82.4775L615.336 98.874L626.3 82.5293C626.857 81.6987 627.792 81.2002 628.792 81.2002H643.218C645.611 81.2004 647.041 83.8664 645.717 85.8604L626.501 114.79L645.781 142.277C647.176 144.265 645.753 147 643.325 147H627.248C626.27 147 625.354 146.523 624.792 145.723L612.857 128.708L601.48 145.671C600.923 146.501 599.989 147 598.989 147H584.563C582.17 147 580.741 144.335 582.064 142.341L601.691 112.79L582.846 85.9229C581.452 83.9349 582.874 81.2005 585.302 81.2002H601.379Z" fill="black"/>
<path d="M703.148 81.2002C704.805 81.2005 706.148 82.5435 706.148 84.2002V91.9238C706.148 93.5805 704.805 94.9236 703.148 94.9238H688.946V144C688.946 145.657 687.603 147 685.946 147H671.454C669.797 147 668.454 145.657 668.454 144V94.9238H654.252C652.595 94.9238 651.252 93.5807 651.252 91.9238V84.2002C651.252 82.5433 652.595 81.2002 654.252 81.2002H703.148Z" fill="black"/>
<path d="M755.35 81.2002C757.006 81.2002 758.35 82.5433 758.35 84.2002V91.9238C758.35 93.5807 757.006 94.9238 755.35 94.9238H731.842V108.742H753.47C755.127 108.742 756.47 110.085 756.47 111.742V119.372C756.47 121.029 755.127 122.372 753.47 122.372H731.842V144C731.842 145.657 730.499 147 728.842 147H714.35C712.693 147 711.35 145.657 711.35 144V84.2002C711.35 82.5433 712.693 81.2002 714.35 81.2002H755.35Z" fill="black"/>
<path fill-rule="evenodd" clip-rule="evenodd" d="M871.366 81.2002C879.137 81.2002 885.059 82.9236 889.132 86.3701C893.205 89.8168 895.242 94.8302 895.242 101.41V106.769C895.242 113.16 893.205 118.049 889.132 121.433C888.105 122.286 886.96 123.031 885.697 123.669C885.888 123.885 886.05 124.131 886.175 124.401L894.604 142.748C895.517 144.735 894.065 147 891.878 147H877.561C876.368 147 875.288 146.294 874.811 145.2L866.807 126.854C866.757 126.739 866.714 126.624 866.68 126.508H859.232C858.336 126.508 857.534 126.113 856.984 125.489V144C856.984 145.657 855.641 147 853.984 147H839.492C837.835 147 836.492 145.657 836.492 144V84.2002C836.492 82.5433 837.835 81.2002 839.492 81.2002H871.366ZM856.984 113.896C857.534 113.273 858.336 112.878 859.232 112.878H865.351C868.734 112.878 871.241 112.189 872.87 110.811C874.562 109.369 875.408 107.238 875.408 104.418V103.479C875.408 100.533 874.562 98.3709 872.87 96.9922C871.241 95.6136 868.734 94.9239 865.351 94.9238H856.984V113.896Z" fill="black"/>
<path d="M1019.72 81.2002C1021.37 81.2003 1022.72 82.5434 1022.72 84.2002V91.9238C1022.72 93.5806 1021.37 94.9237 1019.72 94.9238H991.51V107.332H1017.74C1019.4 107.332 1020.74 108.675 1020.74 110.332V118.057C1020.74 119.713 1019.4 121.057 1017.74 121.057H991.51V133.276H1020.19C1021.84 133.276 1023.19 134.62 1023.19 136.276V144C1023.19 145.657 1021.84 147 1020.19 147H974.018C972.361 147 971.018 145.657 971.018 144V84.2002C971.018 82.5433 972.361 81.2002 974.018 81.2002H1019.72Z" fill="black"/>
<path d="M182.073 105.245C185.158 105.245 187.659 107.746 187.659 110.831V117.619C187.659 120.579 185.372 123.04 182.434 123.392C169.822 124.9 138.588 130.533 136.372 149.45C136.205 150.876 136.364 152.32 136.595 153.737C137.383 158.572 141.558 162.123 146.455 162.123H151.508C154.593 162.123 157.094 164.624 157.094 167.709V175.469C157.094 178.554 154.593 181.054 151.508 181.055H136.248C133.163 181.055 130.741 178.504 129.879 175.542C127.493 167.349 119.926 161.361 110.959 161.361C101.993 161.362 94.4246 167.349 92.0391 175.542C91.1765 178.504 88.7559 181.055 85.6709 181.055H68.3369C65.2518 181.055 62.751 178.554 62.751 175.469V167.709C62.7512 164.624 65.2519 162.123 68.3369 162.123H70.0996C76.7077 162.123 82.0652 156.764 82.0654 150.153V149.592C82.0653 146.332 80.0693 143.4 77.0547 142.161C50.2201 131.136 34.0705 122.11 30.2139 110.732C29.2235 107.811 31.8143 105.245 34.8994 105.245H182.073ZM113.325 31C116.41 31.0002 118.911 33.501 118.911 36.5859V50.6221C118.911 52.9011 120.325 54.9409 122.459 55.7412C124.513 56.5115 126.83 55.9797 128.342 54.3896L138.786 43.4043C140.902 41.1787 144.419 41.0787 146.658 43.1807L152.706 48.8584C154.953 50.9681 155.066 54.4993 152.96 56.749L141.947 68.5088C140.61 69.9374 140.303 72.0473 141.178 73.7979C142.042 75.526 143.879 76.5454 145.803 76.3633L163.956 74.6436C167.234 74.3334 170.068 76.9121 170.068 80.2051V86.3984C170.068 89.4833 167.567 91.9842 164.482 91.9844H53.4971C50.1599 91.9843 47.5671 89.0771 47.9473 85.7617L48.6348 79.7686C48.9804 76.7569 51.6654 74.5706 54.6846 74.8418L71.7939 76.3799C73.7156 76.5524 75.5473 75.5304 76.4102 73.8047C77.2874 72.0499 76.9798 69.9347 75.6396 68.502L64.8369 56.9531C62.7632 54.7364 62.8389 51.2692 65.0078 49.1455L70.9297 43.3477C73.157 41.1671 76.7379 41.2313 78.8857 43.4902L89.249 54.3896C90.7609 55.9796 93.0774 56.5116 95.1318 55.7412C97.2656 54.9408 98.6796 52.901 98.6797 50.6221V36.5859C98.6797 33.5009 101.181 31 104.266 31H113.325Z" fill="black"/>
</svg>
